<svg version="1.2" xmlns="http://www.w3.org/2000/svg" viewBox="0 0 1500 500" width="1500" height="500">
	<style>
		.s0 { fill: #081b35 } 
		.s1 { fill: #17293c } 
		.s2 { fill: #02040c } 
		.s3 { fill: #feb627 } 
		.s4 { fill: #157e95 } 
		.s5 { fill: #036982 } 
	</style>
	<path id="Premortem" class="s0" aria-label="Premortem"  d="m520.8 214.3h-22v48.5h22q12.2 0 18.8-6.3 6.7-6.3 6.7-18 0-11.5-6.7-17.9-6.6-6.3-18.8-6.3zm-39.4 114.7v-129h39.4q21.7 0 32.7 9.8 11.2 9.8 11.2 28.7 0 19.1-11.2 28.9-11 9.8-32.7 9.8h-22v51.8zm159.3-98.2l0.1 16.3q-2.7-1.6-5.9-2.3-3.1-0.7-6.9-0.7-13.5 0-20.7 8.8-7.2 8.7-7.2 25.1v51h-16v-96.8h16v15.1q5-8.9 13.1-13.1 8-4.3 19.5-4.3 1.6 0 3.6 0.3 2 0.1 4.4 0.6zm95.8 45.8v7.8h-73.1q1 16.4 9.9 25.1 8.9 8.5 24.7 8.5 9.1 0 17.7-2.2 8.6-2.3 17.1-6.8v15.1q-8.6 3.6-17.5 5.5-9 1.9-18.3 1.9-23.1 0-36.7-13.5-13.5-13.5-13.5-36.4 0-23.8 12.8-37.7 12.9-14 34.7-14 19.5 0 30.8 12.6 11.4 12.5 11.4 34.1zm-72.6-4.5l56.7-0.1q-0.2-13.1-7.3-20.9-7.1-7.7-18.9-7.7-13.3 0-21.3 7.5-8 7.5-9.2 21.2zm174.2-21.3q5.9-10.7 14.2-15.8 8.3-5.1 19.6-5.1 15.1 0 23.3 10.6 8.2 10.6 8.2 30.1v58.4h-16v-57.9q0-13.9-4.9-20.6-4.9-6.8-15-6.8-12.4 0-19.6 8.2-7.1 8.2-7.1 22.4v54.7h-16v-57.9q0-14-5-20.6-4.9-6.8-15.2-6.8-12.1 0-19.3 8.3-7.2 8.2-7.2 22.3v54.7h-16v-96.8h16v15.1q5.5-8.9 13.1-13.2 7.6-4.2 18-4.2 10.6 0 17.9 5.3 7.4 5.4 11 15.6zm134.1-7.4q-12.8 0-20.2 10-7.4 9.9-7.4 27.3 0 17.4 7.3 27.4 7.5 9.9 20.3 9.9 12.7 0 20.2-10 7.4-10 7.4-27.3 0-17.2-7.4-27.2-7.5-10.1-20.2-10.1zm0-13.5q20.8 0 32.6 13.5 11.8 13.5 11.8 37.3 0 23.8-11.8 37.3-11.8 13.5-32.6 13.5-20.8 0-32.6-13.5-11.8-13.5-11.8-37.3 0-23.8 11.8-37.3 11.8-13.5 32.6-13.5zm126.5 0.9l0.1 16.3q-2.7-1.6-5.9-2.3-3.1-0.7-6.9-0.7-13.5 0-20.7 8.8-7.2 8.7-7.2 25.1v51h-16v-96.8h16v15.1q5-8.9 13.1-13.1 8-4.3 19.5-4.3 1.6 0 3.6 0.3 2 0.1 4.4 0.6zm16.8-26.1h16v27.5h32.7v12.4h-32.7v52.5q0 11.9 3.2 15.2 3.2 3.4 13.2 3.4h16.3v13.3h-16.3q-18.4 0-25.4-6.8-7-6.9-7-25.1v-52.5h-11.7v-12.4h11.7zm153 71.9v7.8h-73.1q1 16.4 9.9 25 8.9 8.6 24.7 8.6 9.1 0 17.7-2.2 8.6-2.3 17.1-6.8v15.1q-8.6 3.6-17.5 5.5-9 1.9-18.3 1.9-23.1 0-36.7-13.5-13.5-13.5-13.5-36.5 0-23.7 12.8-37.6 12.9-14 34.7-14 19.5 0 30.8 12.6 11.4 12.5 11.4 34.1zm-72.6-4.6l56.7-0.1q-0.2-13-7.3-20.8-7.1-7.8-18.9-7.8-13.3 0-21.3 7.6-8 7.5-9.2 21.1zm173.2-21.2q5.9-10.7 14.2-15.8 8.3-5.1 19.6-5.1 15.1 0 23.3 10.6 8.2 10.5 8.2 30.1v58.4h-16v-57.9q0-13.9-4.9-20.7-4.9-6.7-15-6.7-12.4 0-19.6 8.2-7.1 8.2-7.1 22.4v54.7h-16v-57.9q0-14-5-20.7-4.9-6.7-15.2-6.7-12.1 0-19.3 8.3-7.2 8.2-7.2 22.3v54.7h-16v-96.8h16v15q5.5-8.9 13.1-13.1 7.6-4.2 18-4.2 10.6 0 17.9 5.3 7.4 5.4 11 15.6z"/>
	<g id="Abstract">
		<path class="s1" d="m316.52 106.57c-0.95 49.15 0.55 98.73-0.09 147.92-0.1 7.07-0.12 14.54 0.06 21.6l-46.55 0.09c-8.38 0.01-17.75 0.21-26.01-0.08-1.42 4.4-2.89 9.27-4.46 13.57 25.1-0.09 52.09 0.54 76.98-0.03l0.02 118.08c-21.84-0.31-43.92 0.19-65.77 0-9.24-0.09-19.57 0.29-28.68-0.12-4.38 0.3-12.95 0.15-17.33 0.01-14.43 0.86-32.29-0.39-47.34 0.2q16.25-44.64 32.02-89.44l9.34-26.17c1.52-4.24 3.65-10.69 5.45-14.61l50.12-33.57c5.95-4.01 18.34-11.83 23.54-15.96 3.47-9.1 7.24-22.42 10.25-31.94l15.23-48.05c4.28-13.77 8.42-27.9 13.22-41.5z"/>
		<path class="s2" d="m464.49 708.55c2.54-1.81 21.26-1.74 24.11-0.02-6.09 0.41-18.02 0.21-24.11 0.02z"/>
		<path class="s1" d="m182.04 77.22h123.63c-8.65 23.87-16.32 50.3-24.07 74.54-2.19 7.79-5.34 16.87-7.83 24.69-11.05-0.28-23.11-0.04-34.22-0.04l-57.44 0.03c-0.64-32.36-0.07-66.71-0.07-99.22z"/>
		<path class="s1" d="m71.37 77.34c9.84-0.41 21.54-0.11 31.48-0.11l64.66-0.05c-0.38 10.91-0.02 24.02-0.01 35.06l0.01 64.17-5.14 0.01-99.34-0.02c0.38-6.49 0.09-16.24 0.09-22.96l-0.03-43.74c0-7.59-0.17-15.53 0.23-23.12 0.25-4.89 3.51-7.85 8.05-9.24z"/>
		<path class="s3" d="m327.81 288.68c3.21 0.38 8.78 0.21 12.15 0.2l20.35-0.03c17.27-0.02 36.87 0.48 53.94-0.18-0.34 26.38-0.04 53.39-0.06 79.82l0.05 20.33c0.02 5.77 1.06 11.16-2.59 15.85-1.62 1.47-3.62 2.83-5.83 2.99-7.67 0.57-16.14 0.18-23.86 0.2l-54.22 0.09c-0.72-29 0.39-58.53-0.05-87.6-0.16-10.23-0.32-21.48 0.12-31.67z"/>
		<path class="s4" d="m164.14 288.79l0.68-0.09 0.29 0.42c-0.28 1.93-1.1 3.38-1.73 5.23-3.07 8.96-6.55 17.84-9.83 26.74l-19.11 52.77c-4.01 10.99-8.82 23.03-12.39 34.01-16.85-0.72-34.06 0.63-50.91-0.38-1.11-0.07-2.38-0.62-3.36-1.11-2.69-1.8-4.11-3.56-4.45-6.84-0.46-4.48-0.29-8.99-0.28-13.5l0.05-21.41-0.05-75.75z"/>
		<path class="s4" d="m63.03 189.42c34.42 0.7 69.95-0.34 104.56 0.07-0.51 7.85-0.1 21.16-0.09 29.55l0.1 54.02c0.03 1.02 0.16 1.82-0.25 2.74-1.77 0.65-26.66 0.3-30.12 0.3l-74.18-0.04c0.08-3.9 0.08-7.94 0.03-11.85-0.31-24.87 0.43-49.94-0.05-74.79z"/>
		<path class="s3" d="m328.19 77.03c2.74 0.39 12.87 0.21 15.99 0.21l38.88-0.07c6.98-0.05 14.11-0.37 21.01 0.03 12.37 0.72 10.05 12.35 10.16 21.06 0.07 4.91-0.03 9.81-0.03 14.68l0.08 62.82c-28.57 0.8-57.92-0.35-86.52 0.31-0.25-4.44-0.08-10.7-0.08-15.24v-28.99c0-6.19-0.51-52.56 0.51-54.81z"/>
		<path class="s3" d="m327.71 189.39l86.55 0.04c-0.34 7.17 0.07 15.53-0.06 22.82-0.38 21.05 0.48 42.85-0.03 63.85l-59.51 0.01c-5.56 0-22.66-0.36-26.99 0.28 0.23-8.91 0.02-18.68 0.01-27.67z"/>
		<path class="s4" d="m182.22 190.61l0.01-0.7c1.9-1.19 78.27-0.23 87.95-0.47-2.51 7.41-5.54 17.66-8.35 24.52-3.08 2.45-8.66 5.79-12.19 8.04l-21.38 13.61-29.7 18.79c-4.77 3.02-11.63 7.62-16.47 10.25-0.02-3.9-0.09-7.89 0.02-11.78-0.22-16.59 0.08-33.22-0.04-49.81-0.03-4.12-0.05-8.34 0.15-12.45z"/>
		<path class="s5" d="m182.22 190.61c0.76 3.22 0.29 8.17 0.47 11.59 0.52 9.52 0.4 19.17 0.37 28.71-0.02 6.99 0.71 15.28-0.95 21.96-0.22-16.59 0.08-33.22-0.04-49.81-0.03-4.12-0.05-8.34 0.15-12.45z"/>
	</g>
</svg>