<svg xmlns="http://www.w3.org/2000/svg" viewBox="0 0 30 28" aria-hidden="true">
  <path d="M 21.624 2.513 C 21.543 6.67 21.671 10.863 21.616 15.023 C 21.608 15.621 21.606 16.253 21.621 16.85 L 17.647 16.857 C 16.932 16.858 16.132 16.875 15.427 16.851 C 15.306 17.223 15.18 17.635 15.046 17.998 C 17.189 17.99 19.493 18.044 21.618 17.996 L 21.62 27.983 C 19.755 27.956 17.87 27.999 16.005 27.982 C 15.216 27.975 14.334 28.007 13.557 27.972 C 13.183 27.997 12.451 27.985 12.077 27.974 C 10.845 28.046 9.321 27.94 8.036 27.99 C 8.961 25.473 9.872 22.952 10.769 20.426 L 11.567 18.212 C 11.696 17.854 11.878 17.308 12.032 16.977 L 16.311 14.137 C 16.819 13.798 17.877 13.137 18.32 12.788 C 18.616 12.019 18.939 10.892 19.196 10.087 L 20.495 6.023 C 20.861 4.858 21.214 3.663 21.624 2.513 Z" fill="rgb(23,41,60)"/>
  <path d="M 12.087 27.948 C 12.242 27.838 13.391 27.842 13.566 27.946 C 13.193 27.972 12.46 27.959 12.087 27.948 Z" fill="rgb(2,4,12)"/>
  <path d="M 10.16 0.008 L 20.714 0.008 C 19.976 2.027 19.321 4.263 18.66 6.313 C 18.472 6.971 18.203 7.739 17.991 8.401 C 17.048 8.377 16.018 8.397 15.07 8.397 L 10.166 8.4 C 10.111 5.663 10.16 2.758 10.16 0.008 Z M 0.712 0.019 C 1.552 -0.017 2.551 0.009 3.4 0.009 L 8.92 0.005 C 8.887 0.928 8.918 2.036 8.918 2.97 L 8.92 8.397 L 8.481 8.398 L 0 8.396 C 0.032 7.847 0.008 7.023 0.008 6.455 L 0.005 2.756 C 0.005 2.113 -0.01 1.442 0.025 0.8 C 0.046 0.387 0.325 0.136 0.712 0.019 Z" fill="rgb(23,41,60)"/>
  <path d="M 22.608 17.896 C 22.883 17.928 23.359 17.914 23.646 17.913 L 25.384 17.91 C 26.858 17.908 28.531 17.951 29.988 17.895 C 29.959 20.126 29.985 22.41 29.983 24.646 L 29.987 26.365 C 29.989 26.853 30.078 27.309 29.766 27.706 C 29.628 27.83 29.457 27.945 29.269 27.958 C 28.613 28.007 27.891 27.974 27.232 27.975 L 22.603 27.983 C 22.541 25.53 22.636 23.033 22.598 20.575 C 22.585 19.709 22.571 18.758 22.608 17.896 Z" fill="rgb(254,182,39)"/>
  <path d="M 8.637 17.911 L 8.695 17.904 L 8.719 17.939 C 8.696 18.102 8.626 18.225 8.572 18.382 C 8.31 19.14 8.013 19.89 7.732 20.643 L 6.101 25.106 C 5.759 26.035 5.349 27.054 5.044 27.983 C 3.605 27.922 2.136 28.035 0.697 27.95 C 0.602 27.944 0.495 27.898 0.41 27.856 C 0.181 27.704 0.06 27.556 0.031 27.278 C -0.008 26.899 0.006 26.517 0.007 26.136 L 0.011 24.325 L 0.006 17.919 Z M 0.005 9.507 C 2.944 9.566 5.977 9.479 8.931 9.513 C 8.887 10.177 8.923 11.303 8.923 12.012 L 8.932 16.581 C 8.934 16.667 8.946 16.735 8.911 16.812 C 8.76 16.868 6.635 16.838 6.34 16.838 L 0.007 16.834 C 0.014 16.504 0.014 16.163 0.009 15.832 C -0.018 13.729 0.046 11.609 0.005 9.507 Z" fill="rgb(21,126,149)"/>
  <path d="M 22.642 0.013 C 22.876 0.046 23.741 0.031 24.007 0.031 L 27.326 0.025 C 27.922 0.021 28.531 -0.007 29.12 0.027 C 30.176 0.088 29.978 1.072 29.987 1.808 C 29.993 2.224 29.984 2.638 29.984 3.05 L 29.991 8.363 C 27.552 8.431 25.047 8.334 22.605 8.389 C 22.584 8.014 22.599 7.484 22.599 7.1 L 22.599 4.648 C 22.599 4.125 22.555 0.203 22.642 0.013 Z M 22.601 9.516 L 29.99 9.519 C 29.961 10.126 29.996 10.832 29.984 11.449 C 29.952 13.229 30.025 15.073 29.983 16.849 L 24.902 16.85 C 24.427 16.85 22.968 16.82 22.598 16.873 C 22.617 16.12 22.599 15.294 22.599 14.533 Z" fill="rgb(254,182,39)"/>
  <path d="M 10.17 9.615 L 10.171 9.556 C 10.333 9.456 16.853 9.537 17.679 9.517 C 17.465 10.143 17.206 11.01 16.966 11.59 C 16.703 11.797 16.227 12.08 15.926 12.27 L 14.1 13.422 L 11.565 15.011 C 11.157 15.266 10.572 15.655 10.159 15.878 C 10.157 15.548 10.151 15.21 10.16 14.881 C 10.142 13.478 10.167 12.072 10.157 10.669 C 10.154 10.32 10.153 9.963 10.17 9.615 Z" fill="rgb(21,126,149)"/>
</svg>
