<svg version="1.1" xmlns="http://www.w3.org/2000/svg" style="display: block;" viewBox="0 0 2048 2048" width="1024" height="1024" preserveAspectRatio="none">
<path transform="translate(0,0)" fill="rgb(23,41,60)" d="M 1240.09 579.581 C 1237.46 716.315 1241.62 854.258 1239.84 991.1 C 1239.58 1010.78 1239.51 1031.55 1240.01 1051.2 L 1110.5 1051.44 C 1087.19 1051.46 1061.13 1052.03 1038.14 1051.22 C 1034.21 1063.45 1030.11 1077.01 1025.74 1088.96 C 1095.57 1088.71 1170.66 1090.48 1239.9 1088.88 L 1239.95 1417.4 C 1179.2 1416.53 1117.77 1417.93 1056.98 1417.38 C 1031.28 1417.15 1002.53 1418.21 977.201 1417.05 C 965.025 1417.88 941.17 1417.47 928.989 1417.1 C 888.839 1419.49 839.165 1416.01 797.294 1417.64 C 827.432 1334.86 857.122 1251.91 886.362 1168.81 L 912.353 1096 C 916.573 1084.21 922.501 1066.27 927.516 1055.36 L 1066.95 961.964 C 1083.51 950.814 1117.98 929.069 1132.44 917.567 C 1142.08 892.266 1152.58 855.199 1160.96 828.719 L 1203.31 695.034 C 1215.22 656.727 1226.74 617.425 1240.09 579.581 z"/>
<path transform="translate(0,0)" fill="rgb(2,4,12)" d="M 928.989 1417.1 C 934.051 1413.47 971.506 1413.62 977.201 1417.05 C 965.025 1417.88 941.17 1417.47 928.989 1417.1 z"/>
<path transform="translate(0,0)" fill="rgb(23,41,60)" d="M 865.986 497.924 L 1209.92 497.921 C 1185.86 564.329 1164.51 637.874 1142.96 705.313 C 1136.85 726.98 1128.09 752.229 1121.17 773.992 C 1090.44 773.22 1056.88 773.88 1025.97 773.873 L 866.155 773.968 C 864.392 683.932 865.973 588.374 865.986 497.924 z"/>
<path transform="translate(0,0)" fill="rgb(23,41,60)" d="M 558.098 498.272 C 585.46 497.117 618.003 497.95 645.666 497.956 L 825.559 497.828 C 824.501 528.175 825.488 564.643 825.509 595.346 L 825.559 773.889 L 811.256 773.909 L 534.88 773.84 C 535.932 755.784 535.138 728.67 535.126 709.985 L 535.059 588.303 C 535.053 567.17 534.568 545.098 535.679 523.973 C 536.394 510.378 545.465 502.14 558.098 498.272 z"/>
<path transform="translate(0,0)" fill="rgb(254,182,39)" d="M 1271.5 1086.21 C 1280.45 1087.27 1295.95 1086.8 1305.31 1086.77 L 1361.94 1086.69 C 1409.98 1086.63 1464.51 1088.04 1511.98 1086.2 C 1511.05 1159.57 1511.89 1234.72 1511.83 1308.25 L 1511.95 1364.81 C 1512.01 1380.86 1514.91 1395.86 1504.75 1408.91 C 1500.25 1412.99 1494.69 1416.77 1488.54 1417.22 C 1467.19 1418.81 1443.64 1417.74 1422.16 1417.78 L 1271.32 1418.04 C 1269.31 1337.34 1272.4 1255.19 1271.17 1174.33 C 1270.74 1145.86 1270.28 1114.57 1271.5 1086.21 z"/>
<path transform="translate(0,0)" fill="rgb(21,126,149)" d="M 816.182 1086.53 L 818.07 1086.28 L 818.861 1087.45 C 818.091 1092.81 815.821 1096.85 814.058 1102 C 805.528 1126.93 795.846 1151.63 786.704 1176.38 L 733.545 1323.18 C 722.381 1353.76 709.022 1387.27 699.086 1417.82 C 652.199 1415.82 604.328 1419.55 557.444 1416.74 C 554.348 1416.55 550.838 1415.03 548.091 1413.67 C 540.612 1408.65 536.669 1403.77 535.73 1394.64 C 534.445 1382.16 534.906 1369.62 534.94 1357.07 L 535.077 1297.52 L 534.93 1086.77 L 816.182 1086.53 z"/>
<path transform="translate(0,0)" fill="rgb(21,126,149)" d="M 534.877 810.064 C 630.652 812.012 729.485 809.136 825.764 810.281 C 824.34 832.117 825.508 869.15 825.511 892.469 L 825.794 1042.76 C 825.874 1045.6 826.241 1047.82 825.104 1050.38 C 820.191 1052.2 750.935 1051.21 741.319 1051.21 L 534.948 1051.1 C 535.171 1040.25 535.16 1029.01 535.022 1018.14 C 534.147 948.943 536.232 879.201 534.877 810.064 z"/>
<path transform="translate(0,0)" fill="rgb(254,182,39)" d="M 1272.57 497.415 C 1280.2 498.486 1308.38 497.992 1317.06 497.996 L 1425.22 497.798 C 1444.63 497.652 1464.48 496.754 1483.68 497.871 C 1518.09 499.873 1511.62 532.247 1511.94 556.453 C 1512.12 570.137 1511.84 583.746 1511.84 597.295 L 1512.07 772.084 C 1432.58 774.305 1350.93 771.108 1271.37 772.924 C 1270.68 760.578 1271.16 743.155 1271.16 730.533 L 1271.16 649.88 C 1271.16 632.664 1269.72 503.66 1272.57 497.415 z"/>
<path transform="translate(0,0)" fill="rgb(254,182,39)" d="M 1271.24 810.004 L 1512.01 810.112 C 1511.07 830.052 1512.21 853.297 1511.84 873.595 C 1510.78 932.139 1513.18 992.809 1511.78 1051.22 L 1346.21 1051.26 C 1330.75 1051.26 1283.18 1050.26 1271.12 1052.02 C 1271.75 1027.23 1271.17 1000.05 1271.15 975.037 L 1271.24 810.004 z"/>
<path transform="translate(0,0)" fill="rgb(21,126,149)" d="M 866.466 813.381 L 866.505 811.442 C 871.781 808.138 1084.25 810.803 1111.17 810.138 C 1104.2 830.736 1095.78 859.261 1087.95 878.34 C 1079.38 885.158 1063.85 894.462 1054.05 900.706 L 994.548 938.59 L 911.932 990.861 C 898.651 999.253 879.58 1012.05 866.119 1019.38 C 866.058 1008.53 865.863 997.42 866.161 986.584 C 865.569 940.454 866.388 894.174 866.05 848.03 C 865.966 836.555 865.916 824.827 866.466 813.381 z"/>
<path transform="translate(0,0)" fill="rgb(3,105,130)" d="M 866.466 813.381 C 868.587 822.332 867.269 836.109 867.784 845.629 C 869.218 872.119 868.893 898.957 868.809 925.51 C 868.747 944.943 870.782 968.002 866.161 986.584 C 865.569 940.454 866.388 894.174 866.05 848.03 C 865.966 836.555 865.916 824.827 866.466 813.381 z"/>
</svg>