<svg width="128" height="128" viewBox="0 0 128 128" fill="none" xmlns="http://www.w3.org/2000/svg" role="img" aria-label="Azure OpenAI">
  <defs>
    <linearGradient id="azure-openai-gradient" x1="18" y1="20" x2="112" y2="108" gradientUnits="userSpaceOnUse">
      <stop stop-color="#0078D4"/>
      <stop offset="1" stop-color="#32A2F2"/>
    </linearGradient>
  </defs>
  <rect x="10" y="10" width="108" height="108" rx="24" fill="url(#azure-openai-gradient)"/>
  <path
    d="M42 81.5C34.82 81.5 29 75.71 29 68.57C29 62.09 33.71 56.72 39.93 55.79C42.08 47.83 49.25 42 57.75 42C64.8 42 70.98 45.96 74.29 51.9C75.4 51.61 76.56 51.46 77.75 51.46C84.8 51.46 90.51 57.15 90.51 64.18C90.51 71.21 84.8 76.9 77.75 76.9H42Z"
    fill="white"
    opacity="0.94"
  />
  <path
    d="M51.5 92.5L64.2 66.1L76.8 92.5H68.95L64.2 82.3L59.4 92.5H51.5Z"
    fill="#002050"
    opacity="0.92"
  />
  <path
    d="M68.8 61.7L73.8 51.6H81.2L72.6 68.6L68.8 61.7Z"
    fill="#002050"
    opacity="0.72"
  />
</svg>
